<?xml version="1.0" encoding="utf-8"?>
<!-- Generator: Adobe Illustrator 18.1.1, SVG Export Plug-In . SVG Version: 6.00 Build 0)  -->
<svg version="1.2" baseProfile="tiny" id="Capa_1" xmlns="http://www.w3.org/2000/svg" xmlns:xlink="http://www.w3.org/1999/xlink"
	 x="0px" y="0px" viewBox="0 0 485.9 128.1" xml:space="preserve">
<rect x="-1" y="-1" fill="none" width="486.9" height="129.1"/>
<text transform="matrix(1 0 0 1 175.3357 89.2835)" fill="#1B1513" font-family="'DINAlternate-Bold'" font-size="75.2695">Aluminio</text>
<g>
	<path fill="#1B1513" d="M40,70.1l5.9,3.6c1,0,1.5-0.4,1.5-1.2c0-0.5-0.2-1.3-0.7-2.2l-13-24.5L4.7,46.5c-1.3,0.1-1.9,0.7-1.9,2
		c0,0.3,0.4,0.7,1.2,1.2l6,3.6l-6.3,9.9C1.9,66,1,68.3,1,70.2c0,1.6,0.6,3.5,1.8,5.6L22.4,110c-0.5-2.2-0.7-4.2-0.7-6.2
		c0-3.5,1.1-6.9,3.3-10.2L40,70.1z"/>
	<path fill="#1B1513" d="M47.5,50.1L63.7,25C57.7,11.2,51.3,4.2,44.4,4.2c-4.1,0-6.9,1.1-8.3,3.4L20.8,32.2L47.5,50.1z"/>
	<path fill="#1B1513" d="M34.3,118.1h31.3V85.6H35.5c-3.7,5.3-6,8.9-7,10.8c-1.5,3-2.3,6.1-2.3,9.2
		C26.2,113.9,28.9,118.1,34.3,118.1z"/>
	<path fill="#1B1513" d="M98.7,44.1l13.9-23.4c0.5-0.8,0.7-1.7,0.7-2.6c0-1.1-0.4-1.6-1.1-1.6c0.1,0-0.4,0.2-1.4,0.5l-6.3,2.9
		L98.7,8.4C96.1,3.2,91,0.6,83.2,0.6H47c4.4,1.4,7.4,2.7,9,4c3.7,2.9,7.5,8.5,11.4,16.6l7.2,15.2l-5.4,2.6c-0.5,0.2-0.8,0.7-0.8,1.4
		c0,0.9,0.6,1.4,1.7,1.5L98.7,44.1z"/>
	<path fill="#1B1513" d="M112.7,113.3l20.3-36.8c-3,3.4-6.3,5.7-9.8,6.9c-2.8,0.9-6.8,1.4-12.1,1.4H88.5V80c0-1.8-0.4-2.7-1.3-2.7
		c-0.6,0-1.1,0.2-1.4,0.7l-14.3,24.8l14.8,22.7c1.1,1.7,2.1,2.4,2.9,2c0.8-0.2,1.2-0.7,1.2-1.3v-7.8H103
		C107.5,118.5,110.8,116.7,112.7,113.3z"/>
	<path fill="#1B1513" d="M103.8,80h13.5c3.2,0,6.6-1.4,10-4.2c3.7-2.9,5.6-6,5.6-9.3c0-1.5-0.5-3-1.5-4.5l-16-24.5l-27.6,16
		L103.8,80z"/>
</g>
</svg>
