<?xml version="1.0" encoding="utf-8"?>
<!-- Generator: Adobe Illustrator 18.1.1, SVG Export Plug-In . SVG Version: 6.00 Build 0)  -->
<svg version="1.2" baseProfile="tiny" id="Capa_1" xmlns="http://www.w3.org/2000/svg" xmlns:xlink="http://www.w3.org/1999/xlink"
	 x="0px" y="0px" viewBox="0 0 485.9 128.1" xml:space="preserve">
<rect x="-1" y="-1" fill="none" width="486.9" height="129.1"/>
<text transform="matrix(1 0 0 1 171.411 85.4741)" fill="#1B1513" font-family="'DINAlternate-Bold'" font-size="75.173">Orgánicos</text>
<g>
	<path fill="#1B1513" d="M39.9,70l5.9,3.6c1,0,1.5-0.4,1.5-1.2c0-0.5-0.2-1.3-0.7-2.2l-13-24.5L4.7,46.4c-1.3,0.1-1.9,0.7-1.9,2
		c0,0.3,0.4,0.7,1.2,1.2l6,3.6l-6.3,9.9c-1.8,2.8-2.6,5.1-2.6,7c0,1.6,0.6,3.5,1.8,5.5l19.6,34.2c-0.5-2.2-0.7-4.2-0.7-6.2
		c0-3.5,1.1-6.9,3.3-10.2L39.9,70z"/>
	<path fill="#1B1513" d="M47.5,50l16.2-25.1c-6-13.8-12.5-20.7-19.3-20.7c-4.1,0-6.9,1.1-8.3,3.4L20.8,32.1L47.5,50z"/>
	<path fill="#1B1513" d="M34.3,118h31.2V85.5H35.4c-3.7,5.3-6,8.9-7,10.7c-1.5,3-2.3,6-2.3,9.2C26.2,113.8,28.9,118,34.3,118z"/>
	<path fill="#1B1513" d="M98.6,44l13.9-23.4c0.5-0.8,0.7-1.7,0.7-2.6c0-1.1-0.4-1.6-1.1-1.6c0.1,0-0.4,0.2-1.4,0.5l-6.3,2.9
		L98.6,8.4C96,3.2,90.9,0.6,83.1,0.6H46.9c4.4,1.4,7.4,2.7,9,4c3.7,2.9,7.5,8.4,11.4,16.5l7.2,15.1l-5.4,2.6
		c-0.5,0.2-0.8,0.7-0.8,1.4c0,0.9,0.6,1.4,1.7,1.5L98.6,44z"/>
	<path fill="#1B1513" d="M112.5,113.1l20.2-36.8c-3,3.4-6.2,5.7-9.8,6.9c-2.8,0.9-6.8,1.4-12.1,1.4H88.4v-4.7c0-1.8-0.4-2.7-1.3-2.7
		c-0.6,0-1.1,0.2-1.4,0.7l-14.3,24.7l14.8,22.7c1.1,1.7,2.1,2.4,2.9,2c0.8-0.2,1.2-0.7,1.2-1.3v-7.7h12.5
		C107.4,118.3,110.6,116.6,112.5,113.1z"/>
	<path fill="#1B1513" d="M103.7,79.9h13.5c3.2,0,6.6-1.4,10-4.2c3.7-2.9,5.5-6,5.5-9.3c0-1.5-0.5-3-1.5-4.5l-16-24.5l-27.5,16
		L103.7,79.9z"/>
</g>
</svg>
