<?xml version="1.0" encoding="utf-8"?>
<!-- Generator: Adobe Illustrator 18.1.1, SVG Export Plug-In . SVG Version: 6.00 Build 0)  -->
<svg version="1.2" baseProfile="tiny" id="Capa_1" xmlns="http://www.w3.org/2000/svg" xmlns:xlink="http://www.w3.org/1999/xlink"
	 x="0px" y="0px" viewBox="0 0 485.9 128.1" xml:space="preserve">
<rect x="-1" y="-1" fill="none" width="486.9" height="129.1"/>
<g>
	<path fill="#FFFFFF" d="M47,17.5c-17.7,7.3-30,25-30,45.3c0,0.8,0,1.6,0.1,2.3c0.1,1.2,0.1,4.3-0.4,5.3c-0.9,2-3,4.9-7.1,5
		C3.4,75.4,1.3,69,1.3,69C1.1,66.9,1,64.8,1,62.7C1,33.8,19.9,9.3,46,1c1.6-0.5,3.4-0.4,5,0.3c1.5,0.7,3.2,2.1,4.7,4.6
		c1.5,2.5,0.3,4.8-0.9,6.5C53.5,14.5,48.7,16.8,47,17.5z"/>
	<path fill="#FFFFFF" d="M16.3,104.4c11.9,14.1,29.6,23,49.5,23c20.5,0,38.4-9.1,50.3-24c0,0,3.7-5.4-2.3-9.6c-6.8-4.2-9.8-1-9.8-1
		c-8.9,11.4-22.8,18.7-38.3,18.7c-15.2,0-28.7-6.9-37.7-17.8c-0.3-0.4-1.6-1.6-2.6-1.9c-1.8-0.5-4.8-0.5-7.9,2.7
		c-2.8,2.9-2.7,6-2.3,7.8C15.3,103.1,16,104.1,16.3,104.4z"/>
	<path fill="#FFFFFF" d="M81.3,15.9c19.6,6.3,33,25.2,33,46.9c0,1.2,0,2.4-0.1,3.6c-0.1,0.7,0,2.4,0.3,3.1c0.7,1.9,2.8,5.6,8,5.7
		c6.8,0.1,7.8-7.4,7.8-7.4c0.1-1.7,0.2-3.4,0.2-5.1c0-29-19-53.5-45.3-61.8c-0.7-0.2-6.4-1.5-8.8,4.8C73.4,13.7,81.3,15.9,81.3,15.9
		z"/>
</g>
<text transform="matrix(1 0 0 1 164.6678 60.8368)" fill="#FFFFFF" font-family="'DINAlternate-Bold'" font-size="64.823">O</text>
<text transform="matrix(1 0 0 1 204.201 60.8368)" fill="#FFFFFF" font-family="'DINAlternate-Bold'" font-size="64.823">r</text>
<text transform="matrix(1 0 0 1 228.2562 60.8368)" fill="#FFFFFF" font-family="'DINAlternate-Bold'" font-size="64.823">d</text>
<text transform="matrix(1 0 0 1 261.9022 60.8368)" fill="#FFFFFF" font-family="'DINAlternate-Bold'" font-size="64.823">i</text>
<text transform="matrix(1 0 0 1 277.4432 60.8368)" fill="#FFFFFF" font-family="'DINAlternate-Bold'" font-size="64.823">n</text>
<text transform="matrix(1 0 0 1 312.2606 60.8368)" fill="#FFFFFF" font-family="'DINAlternate-Bold'" font-size="64.823">a</text>
<text transform="matrix(1 0 0 1 344.6718 60.8368)" fill="#FFFFFF" font-family="'DINAlternate-Bold'" font-size="64.823">r</text>
<text transform="matrix(1 0 0 1 369.8983 60.8368)" fill="#FFFFFF" font-family="'DINAlternate-Bold'" font-size="64.823">i</text>
<text transform="matrix(1 0 0 1 385.4393 60.8368)" fill="#FFFFFF" font-family="'DINAlternate-Bold'" font-size="64.823">o</text>
<text transform="matrix(1 0 0 1 417.8505 60.8368)" fill="#FFFFFF" font-family="'DINAlternate-Bold'" font-size="64.823">s</text>
<text transform="matrix(1 0 0 1 165.7068 111.5668)" fill="#FFFFFF" font-family="'DINAlternate-Bold'" font-size="49.6297">No Reciclable</text>
</svg>
