<?xml version="1.0" encoding="utf-8"?>
<!-- Generator: Adobe Illustrator 18.1.1, SVG Export Plug-In . SVG Version: 6.00 Build 0)  -->
<svg version="1.2" baseProfile="tiny" id="Capa_1" xmlns="http://www.w3.org/2000/svg" xmlns:xlink="http://www.w3.org/1999/xlink"
	 x="0px" y="0px" viewBox="0 0 485.9 128.1" xml:space="preserve">
<rect x="-1" y="-1" fill="none" width="486.9" height="129.1"/>
<path fill="#FFFFFF" d="M50.9,45.2c1.4,1.4,2.9,2.6,4.6,3.6c4-2.5,8.8-3.9,13.9-3.9c5,0,9.7,1.4,13.7,3.8c1.6-1,3-2.2,4.4-3.5
	c1.5-1.5,2.8-3.2,3.9-5c-6.2-4.4-13.8-6.9-22-6.9c-8.3,0-16,2.6-22.2,7.1C48.2,42.1,49.5,43.7,50.9,45.2z M38.6,65.2
	c6.5,1.8,12,5.6,15.8,10.6l6-3.4c0-0.3-0.1-0.7-0.1-1c0-3.7,2.2-6.9,5.4-8.3v-6.7c-6.4-0.8-12.5-3.6-17.4-8.4
	c-11.5-11.5-11.5-30.2,0-41.8c2.3-2.3,4.8-4.1,7.5-5.4c-4.6,1.8-8.8,4.5-12.5,8.2c-12,12-13.9,30.3-5.8,44.3
	C21.4,53.2,6.6,64,2.3,80.3c-1.3,5-1.6,10.1-0.8,14.9c-0.2-3,0.1-6.1,1-9.2C6.6,70.3,22.8,60.9,38.6,65.2z M37.6,68.8
	c-2.1-0.6-4.2-0.8-6.3-0.9c-0.1,1.2-0.2,2.4-0.2,3.6c0,15.4,9.1,28.7,22.3,34.8c1-1.9,1.9-3.9,2.4-6c0.5-1.8,0.8-3.6,0.8-5.4
	c-8.3-4.5-13.9-13.3-13.9-23.4c0-0.2,0-0.5,0-0.7C41.2,69.9,39.4,69.3,37.6,68.8z M136.5,80.1c-4.4-16.4-19.3-27.2-35.5-27.2
	c8-14,6.1-32.1-5.9-44.1c-3.7-3.7-8-6.4-12.5-8.2C85.2,2,87.8,3.8,90,6.1c11.5,11.5,11.5,30.2,0,41.8c-4.8,4.8-10.8,7.6-17,8.4v6.7
	c3.2,1.4,5.4,4.6,5.4,8.3c0,0.3,0,0.7-0.1,1l5.8,3.4c3.8-5.1,9.3-8.9,15.9-10.7c15.8-4.2,31.9,5.1,36.2,20.9c0.8,3.1,1.1,6.2,1,9.2
	C138,90.2,137.8,85.1,136.5,80.1z M82.1,94.9c0.1,1.7,0.4,3.5,0.8,5.2c0.6,2.2,1.5,4.3,2.5,6.2c13.1-6.1,22.2-19.3,22.2-34.8
	c0-1.3-0.1-2.6-0.2-3.9c-2.1,0-4.2,0.3-6.3,0.9c-1.8,0.5-3.6,1.2-5.2,2c0,0.3,0,0.6,0,1C96,81.6,90.3,90.4,82.1,94.9z M79.3,101.1
	c-1.8-6.6-1.2-13.3,1.3-19.1l-5.9-3.4c-1.5,1.1-3.4,1.8-5.4,1.8c-2,0-3.9-0.7-5.4-1.8L58,82.1c2.5,5.9,3.2,12.6,1.4,19.3
	c-4.2,15.8-20.4,25.1-36.2,20.9c-3.1-0.8-5.9-2.1-8.5-3.8c3.8,3.1,8.3,5.4,13.4,6.7c16.4,4.4,33.2-3.1,41.3-17.2
	c8.1,13.9,24.8,21.3,41.1,16.9c5-1.3,9.5-3.7,13.4-6.7c-2.5,1.7-5.4,2.9-8.5,3.8C99.7,126.2,83.5,116.9,79.3,101.1z"/>
<text transform="matrix(1 0 0 1 175.5046 55.5457)" fill="#FFFFFF" font-family="'DINAlternate-Bold'" font-size="59.0268">Residuos</text>
<text transform="matrix(1 0 0 1 175.5046 111.3021)" fill="#FFFFFF" font-family="'DINAlternate-Bold'" font-size="59.0268">P</text>
<text transform="matrix(1 0 0 1 209.4279 111.3021)" fill="#FFFFFF" font-family="'DINAlternate-Bold'" font-size="59.0268">e</text>
<text transform="matrix(1 0 0 1 238.9411 111.3021)" fill="#FFFFFF" font-family="'DINAlternate-Bold'" font-size="59.0268">l</text>
<text transform="matrix(1 0 0 1 254.1589 111.3021)" fill="#FFFFFF" font-family="'DINAlternate-Bold'" font-size="59.0268">i</text>
<text transform="matrix(1 0 0 1 268.3103 111.3021)" fill="#FFFFFF" font-family="'DINAlternate-Bold'" font-size="59.0268">g</text>
<text transform="matrix(1 0 0 1 298.948 111.3021)" fill="#FFFFFF" font-family="'DINAlternate-Bold'" font-size="59.0268">r</text>
<text transform="matrix(1 0 0 1 320.8523 111.3021)" fill="#FFFFFF" font-family="'DINAlternate-Bold'" font-size="59.0268">o</text>
<text transform="matrix(1 0 0 1 350.3659 111.3021)" fill="#FFFFFF" font-family="'DINAlternate-Bold'" font-size="59.0268">s</text>
<text transform="matrix(1 0 0 1 378.698 111.3021)" fill="#FFFFFF" font-family="'DINAlternate-Bold'" font-size="59.0268">o</text>
<text transform="matrix(1 0 0 1 408.2107 111.3021)" fill="#FFFFFF" font-family="'DINAlternate-Bold'" font-size="59.0268">s</text>
</svg>
