<?xml version="1.0" encoding="utf-8"?>
<!-- Generator: Adobe Illustrator 18.1.1, SVG Export Plug-In . SVG Version: 6.00 Build 0)  -->
<svg version="1.2" baseProfile="tiny" id="Capa_1" xmlns="http://www.w3.org/2000/svg" xmlns:xlink="http://www.w3.org/1999/xlink"
	 x="0px" y="0px" viewBox="0 0 485.9 128.1" xml:space="preserve">
<rect x="-1" y="-1" fill="none" width="486.9" height="129.1"/>
<g>
	<path fill="#FFFFFF" d="M40,70.2l5.9,3.6c1,0,1.5-0.4,1.5-1.2c0-0.5-0.2-1.3-0.7-2.2L33.7,45.8l-29,0.7c-1.3,0.1-1.9,0.7-1.9,2
		c0,0.3,0.4,0.7,1.2,1.2l6,3.6l-6.4,9.9c-1.8,2.8-2.6,5.2-2.6,7c0,1.7,0.6,3.5,1.8,5.6l19.7,34.3c-0.5-2.2-0.7-4.2-0.7-6.2
		c0-3.5,1.1-6.9,3.3-10.2L40,70.2z"/>
	<path fill="#FFFFFF" d="M47.6,50.2L63.9,25C57.8,11.2,51.4,4.3,44.5,4.3c-4.1,0-6.9,1.1-8.3,3.4L20.9,32.2L47.6,50.2z"/>
	<path fill="#FFFFFF" d="M34.4,118.3h31.3V85.7H35.5c-3.7,5.3-6,8.9-7,10.8c-1.5,3-2.3,6.1-2.3,9.2C26.3,114.1,29,118.3,34.4,118.3z
		"/>
	<path fill="#FFFFFF" d="M98.9,44.2l13.9-23.5c0.5-0.8,0.7-1.7,0.7-2.6c0-1.1-0.4-1.6-1.1-1.6c0.1,0-0.4,0.2-1.4,0.5l-6.4,2.9
		L98.9,8.4c-2.6-5.2-7.8-7.8-15.5-7.8H47.1c4.4,1.4,7.4,2.7,9,4c3.7,2.9,7.5,8.5,11.4,16.6l7.2,15.2l-5.4,2.6
		c-0.5,0.2-0.8,0.7-0.8,1.4c0,0.9,0.6,1.4,1.7,1.5L98.9,44.2z"/>
	<path fill="#FFFFFF" d="M112.9,113.5l20.3-36.9c-3,3.4-6.3,5.7-9.8,6.9c-2.8,0.9-6.9,1.4-12.1,1.4H88.7v-4.7c0-1.8-0.4-2.7-1.3-2.7
		c-0.6,0-1.1,0.2-1.4,0.7L71.6,103l14.8,22.8c1.1,1.7,2.1,2.4,2.9,2c0.8-0.2,1.2-0.7,1.2-1.3v-7.8h12.5
		C107.7,118.7,111,116.9,112.9,113.5z"/>
	<path fill="#FFFFFF" d="M104,80.2h13.5c3.2,0,6.6-1.4,10.1-4.2c3.7-2.9,5.6-6.1,5.6-9.4c0-1.5-0.5-3-1.5-4.5l-16.1-24.5L88,53.6
		L104,80.2z"/>
</g>
<text transform="matrix(1 0 0 1 160.0095 89.4447)" fill="#FFFFFF" font-family="'DINAlternate-Bold'" font-size="75.4056">Plástico</text>
</svg>
