<?xml version="1.0" encoding="utf-8"?>
<!-- Generator: Adobe Illustrator 18.1.1, SVG Export Plug-In . SVG Version: 6.00 Build 0)  -->
<svg version="1.2" baseProfile="tiny" id="Capa_1" xmlns="http://www.w3.org/2000/svg" xmlns:xlink="http://www.w3.org/1999/xlink"
	 x="0px" y="0px" viewBox="0 0 485.9 128.1" xml:space="preserve">
<rect x="-1" y="-1" fill="none" width="486.9" height="129.1"/>
<g>
	<path fill="#1B1513" d="M40,70l5.9,3.6c1,0,1.5-0.4,1.5-1.2c0-0.5-0.2-1.3-0.7-2.2l-13-24.5L4.7,46.4c-1.3,0.1-1.9,0.7-1.9,2
		c0,0.3,0.4,0.7,1.2,1.2l6,3.6l-6.3,9.9C1.9,66,1,68.3,1,70.1c0,1.6,0.6,3.5,1.8,5.5l19.6,34.2c-0.5-2.2-0.7-4.2-0.7-6.2
		c0-3.5,1.1-6.9,3.3-10.2L40,70z"/>
	<path fill="#1B1513" d="M47.5,50l16.2-25.1c-6-13.8-12.5-20.7-19.3-20.7c-4.1,0-6.9,1.1-8.3,3.4L20.8,32.2L47.5,50z"/>
	<path fill="#1B1513" d="M34.3,118h31.3V85.5H35.5c-3.7,5.3-6,8.9-7,10.7c-1.5,3-2.3,6-2.3,9.2C26.2,113.8,28.9,118,34.3,118z"/>
	<path fill="#1B1513" d="M98.7,44l13.9-23.4c0.5-0.8,0.7-1.7,0.7-2.6c0-1.1-0.4-1.6-1.1-1.6c0.1,0-0.4,0.2-1.4,0.5l-6.3,2.9
		L98.7,8.4c-2.6-5.2-7.7-7.7-15.5-7.7H47c4.4,1.4,7.4,2.7,9,4c3.7,2.9,7.5,8.5,11.4,16.6l7.2,15.1l-5.4,2.6
		c-0.5,0.2-0.8,0.7-0.8,1.4c0,0.9,0.6,1.4,1.7,1.5L98.7,44z"/>
	<path fill="#1B1513" d="M112.6,113.1l20.2-36.8c-3,3.4-6.3,5.7-9.8,6.9c-2.8,0.9-6.8,1.4-12.1,1.4H88.5V80c0-1.8-0.4-2.7-1.3-2.7
		c-0.6,0-1.1,0.2-1.4,0.7l-14.3,24.7l14.8,22.7c1.1,1.7,2.1,2.4,2.9,2c0.8-0.2,1.2-0.7,1.2-1.3v-7.7h12.5
		C107.5,118.3,110.7,116.6,112.6,113.1z"/>
	<path fill="#1B1513" d="M103.8,80h13.5c3.2,0,6.6-1.4,10-4.2c3.7-2.9,5.5-6,5.5-9.3c0-1.5-0.5-3-1.5-4.5l-16-24.5l-27.6,16
		L103.8,80z"/>
</g>
<text transform="matrix(1 0 0 1 171.5097 84.5804)" fill="#1B1513" font-family="'DINAlternate-Bold'" font-size="75.1991">V</text>
<text transform="matrix(1 0 0 1 211.9731 84.5804)" fill="#1B1513" font-family="'DINAlternate-Bold'" font-size="75.1991">i</text>
<text transform="matrix(1 0 0 1 230.0019 84.5804)" fill="#1B1513" font-family="'DINAlternate-Bold'" font-size="75.1991">d</text>
<text transform="matrix(1 0 0 1 269.0331 84.5804)" fill="#1B1513" font-family="'DINAlternate-Bold'" font-size="75.1991">r</text>
<text transform="matrix(1 0 0 1 298.2978 84.5804)" fill="#1B1513" font-family="'DINAlternate-Bold'" font-size="75.1991">i</text>
<text transform="matrix(1 0 0 1 316.3271 84.5804)" fill="#1B1513" font-family="'DINAlternate-Bold'" font-size="75.1991">o</text>
</svg>
